<svg width="40" height="40" viewBox="0 0 40 40" fill="none" xmlns="http://www.w3.org/2000/svg">
<path d="M11.136 17.8713C11.535 17.0163 12.7507 17.0163 13.1497 17.8713L15.8358 23.6268C15.9462 23.8633 16.1363 24.0534 16.3728 24.1637L22.1283 26.8499C22.9833 27.2489 22.9833 28.4646 22.1283 28.8636L16.3728 31.5497C16.1363 31.6601 15.9462 31.8502 15.8358 32.0867L13.1497 37.8422C12.7507 38.6971 11.535 38.6971 11.136 37.8422L8.44988 32.0867C8.33951 31.8502 8.14942 31.6601 7.91293 31.5497L2.15739 28.8636C1.30244 28.4646 1.30244 27.2489 2.15739 26.8499L7.91293 24.1637C8.14942 24.0534 8.33951 23.8633 8.44988 23.6268L11.136 17.8713Z" fill="url(#paint0_linear_16109_6941)"/>
<path d="M30.3726 12.7344C31.1307 11.1101 33.4406 11.1101 34.1987 12.7344L35.0894 14.6426C35.1004 14.6662 35.1194 14.6853 35.1431 14.6963L37.0513 15.5869C38.6756 16.345 38.6756 18.655 37.0513 19.4131L35.1431 20.3037C35.1194 20.3147 35.1004 20.3338 35.0894 20.3574L34.1987 22.2656C33.4406 23.8899 31.1307 23.8899 30.3726 22.2656L29.4819 20.3574C29.4709 20.3338 29.4519 20.3147 29.4282 20.3037L27.52 19.4131C25.8957 18.655 25.8957 16.345 27.52 15.5869L29.4282 14.6963C29.4519 14.6853 29.4709 14.6662 29.4819 14.6426L30.3726 12.7344Z" fill="url(#paint1_linear_16109_6941)" stroke="#FFCA38" stroke-width="2"/>
<path d="M15.2788 2.15739C15.6778 1.30244 16.8935 1.30244 17.2925 2.15739L18.1831 4.06562C18.2934 4.30211 18.4835 4.4922 18.72 4.60257L20.6283 5.49314C21.4832 5.89215 21.4832 7.10785 20.6283 7.50686L18.72 8.39743C18.4835 8.5078 18.2934 8.69789 18.1831 8.93438L17.2925 10.8426C16.8935 11.6976 15.6778 11.6976 15.2788 10.8426L14.3882 8.93438C14.2778 8.69789 14.0878 8.5078 13.8513 8.39743L11.943 7.50686C11.0881 7.10785 11.0881 5.89215 11.943 5.49314L13.8513 4.60257C14.0878 4.4922 14.2778 4.30211 14.3882 4.06562L15.2788 2.15739Z" fill="url(#paint2_linear_16109_6941)"/>
<defs>
<linearGradient id="paint0_linear_16109_6941" x1="5.16071" y1="37.8746" x2="19.7321" y2="18.1424" gradientUnits="userSpaceOnUse">
<stop stop-color="#0052FF"/>
<stop offset="1" stop-color="#4200FF"/>
</linearGradient>
<linearGradient id="paint1_linear_16109_6941" x1="28.5481" y1="22.8625" x2="36.3481" y2="12.3" gradientUnits="userSpaceOnUse">
<stop stop-color="#0052FF"/>
<stop offset="1" stop-color="#4200FF"/>
</linearGradient>
<linearGradient id="paint2_linear_16109_6941" x1="12.5481" y1="11.8625" x2="20.3481" y2="1.3" gradientUnits="userSpaceOnUse">
<stop stop-color="#0052FF"/>
<stop offset="1" stop-color="#4200FF"/>
</linearGradient>
</defs>
</svg>
